<?xml version="1.0" encoding="UTF-8"?>
<!DOCTYPE svg PUBLIC "-//W3C//DTD SVG 1.1//EN" "http://www.w3.org/Graphics/SVG/1.1/DTD/svg11.dtd">
<svg xmlns="http://www.w3.org/2000/svg" version="1.1" width="500px" height="500px" style="shape-rendering:geometricPrecision; text-rendering:geometricPrecision; image-rendering:optimizeQuality; fill-rule:evenodd; clip-rule:evenodd" xmlns:xlink="http://www.w3.org/1999/xlink">
<g><path style="opacity:0.064" fill="#f0f6fe" d="M 112.5,116.5 C 112.169,147.671 112.502,178.671 113.5,209.5C 113.217,210.289 112.717,210.956 112,211.5C 111.169,179.664 111.336,147.997 112.5,116.5 Z"/></g>
<g><path style="opacity:1" fill="#1eb9ff" d="M 112.5,116.5 C 116.291,119.118 119.957,121.951 123.5,125C 125.717,126.275 128.051,127.275 130.5,128C 168.002,128.167 205.336,128.667 242.5,129.5C 242.827,196.523 242.493,263.523 241.5,330.5C 242.143,349.98 242.81,369.313 243.5,388.5C 226.5,389.833 209.5,389.833 192.5,388.5C 194.787,384.378 197.954,381.045 202,378.5C 203.544,376.532 204.711,374.365 205.5,372C 204.343,312.85 204.176,253.683 205,194.5C 180.709,193.824 156.375,193.157 132,192.5C 123.229,195.418 117.062,201.085 113.5,209.5C 112.502,178.671 112.169,147.671 112.5,116.5 Z"/></g>
<g><path style="opacity:1" fill="#172da5" d="M 383.5,119.5 C 384.833,133.651 385.499,148.151 385.5,163C 385.333,177.5 385.167,192 385,206.5C 384.29,205.027 383.124,204.36 381.5,204.5C 377.687,198.866 372.521,194.866 366,192.5C 342.293,193.281 318.46,193.614 294.5,193.5C 294.476,254.248 294.476,314.915 294.5,375.5C 294.427,377.027 295.094,378.027 296.5,378.5C 300.167,381.5 303.5,384.833 306.5,388.5C 290.008,389.497 273.342,389.83 256.5,389.5C 255.334,303.001 255.168,216.334 256,129.5C 293.762,128.67 331.595,128.17 369.5,128C 371.407,126.878 373.407,126.045 375.5,125.5C 377.027,125.573 378.027,124.906 378.5,123.5C 380.749,122.92 382.415,121.587 383.5,119.5 Z"/></g>
<g><path style="opacity:0.647" fill="#8895d0" d="M 383.5,119.5 C 382.415,121.587 380.749,122.92 378.5,123.5C 379.585,121.413 381.251,120.08 383.5,119.5 Z"/></g>
<g><path style="opacity:0.82" fill="#7685c7" d="M 378.5,123.5 C 378.027,124.906 377.027,125.573 375.5,125.5C 375.973,124.094 376.973,123.427 378.5,123.5 Z"/></g>
<g><path style="opacity:0.983" fill="#7274bf" d="M 386.5,207.5 C 386.5,208.833 385.833,209.5 384.5,209.5C 383.11,208.101 382.11,206.434 381.5,204.5C 383.124,204.36 384.29,205.027 385,206.5C 385.167,192 385.333,177.5 385.5,163C 385.499,148.151 384.833,133.651 383.5,119.5C 384.504,118.317 385.338,116.984 386,115.5C 386.5,116 387,116.5 387.5,117C 387.825,147.032 387.492,177.199 386.5,207.5 Z"/></g>
<g><path style="opacity:0.012" fill="#d6daed" d="M 386.5,207.5 C 387.598,208.601 387.765,209.934 387,211.5C 386.005,210.934 385.172,210.267 384.5,209.5C 385.833,209.5 386.5,208.833 386.5,207.5 Z"/></g>
<g><path style="opacity:0.012" fill="#ebeef9" d="M 295.5,208.5 C 296.661,223.995 296.828,239.661 296,255.5C 295.5,239.837 295.333,224.17 295.5,208.5 Z"/></g>
<g><path style="opacity:0.791" fill="#44c5ff" d="M 242.5,129.5 C 243.499,215.665 243.833,301.998 243.5,388.5C 242.81,369.313 242.143,349.98 241.5,330.5C 242.493,263.523 242.827,196.523 242.5,129.5 Z"/></g>
<g><path style="opacity:0.004" fill="#f2f3fc" d="M 295.5,367.5 C 296.833,368.167 296.833,368.167 295.5,367.5 Z"/></g>
<g><path style="opacity:0.024" fill="#eceef9" d="M 299.5,377.5 C 298.833,376.167 298.833,376.167 299.5,377.5 Z"/></g>
<g><path style="opacity:0.4" fill="#a2abda" d="M 294.5,375.5 C 295.906,375.973 296.573,376.973 296.5,378.5C 295.094,378.027 294.427,377.027 294.5,375.5 Z"/></g>
<g><path style="opacity:0.016" fill="#eff0fc" d="M 299.5,377.5 C 300.167,377.5 300.5,377.833 300.5,378.5C 300.167,378.167 299.833,377.833 299.5,377.5 Z"/></g>
<g><path style="opacity:0.02" fill="#eeeffa" d="M 300.5,378.5 C 301.167,378.5 301.5,378.833 301.5,379.5C 301.167,379.167 300.833,378.833 300.5,378.5 Z"/></g>
<g><path style="opacity:0.035" fill="#ebecf7" d="M 301.5,379.5 C 302.167,379.5 302.5,379.833 302.5,380.5C 302.167,380.167 301.833,379.833 301.5,379.5 Z"/></g>
<g><path style="opacity:0.016" fill="#eef0fa" d="M 302.5,380.5 C 303.167,380.5 303.5,380.833 303.5,381.5C 303.167,381.167 302.833,380.833 302.5,380.5 Z"/></g>
<g><path style="opacity:0.008" fill="#f2f4fa" d="M 303.5,381.5 C 304.167,381.5 304.5,381.833 304.5,382.5C 304.167,382.167 303.833,381.833 303.5,381.5 Z"/></g>
<g><path style="opacity:0.004" fill="#f1f3fb" d="M 304.5,382.5 C 305.833,383.167 305.833,383.167 304.5,382.5 Z"/></g>
<g><path style="opacity:0.086" fill="#d5f0fc" d="M 189.5,385.5 C 190.833,386.167 190.833,386.167 189.5,385.5 Z"/></g>
<g><path style="opacity:0.016" fill="#f1f2fa" d="M 308.5,385.5 C 309.833,386.167 309.833,386.167 308.5,385.5 Z"/></g>
<g><path style="opacity:0.916" fill="#6ccaff" d="M 192.5,388.5 C 209.5,389.833 226.5,389.833 243.5,388.5C 244.043,388.56 244.376,388.893 244.5,389.5C 243.758,390.287 242.925,390.953 242,391.5C 225.103,391.039 208.77,391.039 193,391.5C 188.676,390.642 188.509,389.642 192.5,388.5 Z"/></g>
<g><path style="opacity:0.857" fill="#3b59b2" d="M 306.5,388.5 C 307.756,388.461 308.756,388.961 309.5,390C 291.662,390.829 273.995,390.662 256.5,389.5C 273.342,389.83 290.008,389.497 306.5,388.5 Z"/></g>
</svg>
